<?xml version="1.0" standalone="no"?><!DOCTYPE svg PUBLIC "-//W3C//DTD SVG 1.1//EN" "http://www.w3.org/Graphics/SVG/1.1/DTD/svg11.dtd"><svg t="1646461103863" class="icon" viewBox="0 0 1024 1024" version="1.1" xmlns="http://www.w3.org/2000/svg" p-id="2120" xmlns:xlink="http://www.w3.org/1999/xlink" width="200" height="200"><defs><style type="text/css"></style></defs><path d="M896 936.96H128c-22.528 0-40.96-18.432-40.96-40.96V128c0-22.528 18.432-40.96 40.96-40.96h768c22.528 0 40.96 18.432 40.96 40.96v768c0 22.528-18.432 40.96-40.96 40.96zM128 128v768h768V128H128z" p-id="2121"></path><path d="M512 552.96c-138.24 0-250.88-133.12-250.88-296.96 0-11.264 9.216-20.48 20.48-20.48s20.48 9.216 20.48 20.48c0 141.312 94.208 256 209.92 256s209.92-114.688 209.92-256c0-11.264 9.216-20.48 20.48-20.48s20.48 9.216 20.48 20.48c0 163.328-112.64 296.96-250.88 296.96z" p-id="2122"></path></svg>